/* XPM */
static char *_df27b5992c04c99a4dd852dc95fd2e5daPQdnMCPhDZC1C8[] = {
/* columns rows colors chars-per-pixel */
"32 32 7 1 ",
"  c None",
". c #060606",
"X c #4A3203",
"o c #6D5604",
"O c #745B2A",
"+ c #4B4B44",
"@ c #FFFFFD",
/* pixels */
"                                ",
"                                ",
"        ................        ",
"        .XXXXXXXXXXXXXX.        ",
"        .Xo+++oXXo+++oX.        ",
"        .X+OOO@XX+OOO@X.        ",
"        .X+OOO@XX+OOO@X.        ",
"        .X+OOO@XX+OOO@X.        ",
"        .X+OOO@XX+OOO@X.        ",
"        .X+OOO@XX+OOO@X.        ",
"        .X+OOO@XX+OOO@X.        ",
"        .X+OOO@XX+OOO@X.        ",
"        .X+OOO@XX+OOO@X.        ",
"        .X+OOO@XX+OOO@X.        ",
"        .Xo@@@oXXo@@@oX.        ",
"        .XXXXXXXXXXXXXX.        ",
"        .XXXXXXXXXXXXXX.        ",
"        .Xo+++oXXo+++oX.        ",
"        .X+OOO@XX+OOO@X.        ",
"        .X+OOO@XX+OOO@X.        ",
"        .X+OOO@XX+OOO@X.        ",
"        .X+OOO@XX+OOO@X.        ",
"        .X+OOO@XX+OOO@X.        ",
"        .X+OOO@XX+OOO@X.        ",
"        .X+OOO@XX+OOO@X.        ",
"        .X+OOO@XX+OOO@X.        ",
"        .X+OOO@XX+OOO@X.        ",
"        .Xo@@@oXXo@@@oX.        ",
"        .XXXXXXXXXXXXXX.        ",
"        ................        ",
"                                ",
"                                "
};
