/* XPM */
static char *eb47493c73484da8e79ec2d0114c40cdk0jjkP2vqvcAuZr3[] = {
/* columns rows colors chars-per-pixel */
"32 32 27 1 ",
"  c None",
". c #0250B7",
"X c #0453B8",
"o c #005DBE",
"O c #1255BC",
"+ c #2B57BB",
"@ c #3058BB",
"# c #1666CC",
"$ c #3766C1",
"% c #0085C7",
"& c #278AC7",
"* c #1EBFD3",
"= c #2DB5D5",
"- c #00C1D4",
"; c #07C4D6",
": c #1CC6D7",
"> c #1AC7D9",
", c #23C7DA",
"< c #4ED8D7",
"1 c #5BDADA",
"2 c #5FDADA",
"3 c #63D7D3",
"4 c #68DAD7",
"5 c #68DCD8",
"6 c #68DADE",
"7 c #D8E0E0",
"8 c #F1F5F5",
/* pixels */
"                                ",
"                                ",
"    OO                    ==++  ",
"    OO                    ==++  ",
"  OO**                    55==  ",
"  OO**                    55==  ",
"  **          &&          55    ",
"  **          &&          55    ",
"  44        $$,,&&              ",
"  44        $$,,&&              ",
"          $$,,,,66&&            ",
"          $$,,,,66&&            ",
"        $$$$,,668866&&          ",
"        $$$$,,668866&&          ",
"        88>>668866,,&&&&        ",
"        88>>668866,,&&&&        ",
"      @@;;8888668866,,,,%%      ",
"      @@;;8888668866,,,,%%      ",
"      @@;;6688--228811%%        ",
"      @@;;6688--228811%%        ",
"        XX--<<77--22oo          ",
"        XX--<<77--22oo          ",
"        XX--<<7722oo            ",
"        XX--<<7722oo            ",
"          ..8822..        ##    ",
"          ..8822..        ##    ",
"          ..22..        ##::    ",
"          ..22..        ##::    ",
"            ..            33    ",
"            ..            33    ",
"                                ",
"                                "
};
