/* XPM */
static char *_04f55c929b6475dc3faf2c481eaa2e6XMLJVZNDq3i7citM[] = {
/* columns rows colors chars-per-pixel */
"32 32 126 2 ",
"   c #3C3E43",
".  c #3F4047",
"X  c #43454B",
"o  c #46484E",
"O  c #49494D",
"+  c #424850",
"@  c #4B4D53",
"#  c #4D5056",
"$  c #4F555F",
"%  c #515255",
"&  c #545559",
"*  c #57585C",
"=  c #595A5E",
"-  c #535761",
";  c #565962",
":  c #5A5C63",
">  c #575D68",
",  c #5A5F68",
"<  c #5E626C",
"1  c #5B6271",
"2  c #616266",
"3  c #64666B",
"4  c #67686C",
"5  c #68696E",
"6  c #616671",
"7  c #666A74",
"8  c #6B6D73",
"9  c #646B79",
"0  c #696E7A",
"q  c #6E7176",
"w  c #6C727D",
"e  c #707377",
"r  c #72757B",
"t  c #78797E",
"y  c #6E7480",
"u  c #727783",
"i  c #757A86",
"p  c #7B7D84",
"a  c #767C89",
"s  c #787E8B",
"d  c #7E8086",
"f  c #7B818E",
"g  c #7D8491",
"h  c #83858B",
"j  c #86898F",
"k  c #808692",
"l  c #858A94",
"z  c #8A8D93",
"x  c #848C9B",
"c  c #898F9B",
"v  c #8D9197",
"b  c #8D929B",
"n  c #92959C",
"m  c #94989E",
"M  c #989B9F",
"N  c #848EA0",
"B  c #8B93A3",
"V  c #8E97A8",
"C  c #8F99AB",
"Z  c #949AA3",
"A  c #9A9DA4",
"S  c #939BAB",
"D  c #9CA0A7",
"F  c #9DA2AB",
"G  c #97A1B2",
"H  c #9BA4B5",
"J  c #9FA9B4",
"K  c #9BA6B9",
"L  c #9EA9BB",
"P  c #A2A6AD",
"I  c #A5A9AF",
"U  c #A1A7B3",
"Y  c #A5AAB3",
"T  c #AAAEB5",
"R  c #A4ACBC",
"E  c #A9AFB9",
"W  c #ABB0B7",
"Q  c #A7B0BF",
"!  c #ACB2BB",
"~  c #B1B5BD",
"^  c #A5AFC1",
"/  c #A6B0C1",
"(  c #ABB4C3",
")  c #AFB8C7",
"_  c #AEB8C8",
"`  c #B1B7C0",
"'  c #B4BAC4",
"]  c #B9BDC5",
"[  c #B3BCCA",
"{  c #B9BFC9",
"}  c #BCC0C7",
"|  c #BBC2CC",
" . c #BDC5D1",
".. c #C1C6CE",
"X. c #C4C9CF",
"o. c #C1C7D1",
"O. c #C5CBD4",
"+. c #C7CCD5",
"@. c #C7CDD7",
"#. c #C8CAD0",
"$. c #C9CED6",
"%. c #C8CED7",
"&. c #C7CDD8",
"*. c #C9CFD9",
"=. c #CBD0D7",
"-. c #CCD1DA",
";. c #CED3DB",
":. c #CED3DC",
">. c #CFD4DD",
",. c #D1D5DD",
"<. c #D0D5DE",
"1. c #D3D8DF",
"2. c #D7D9DF",
"3. c #D2D6E1",
"4. c #D4D9E0",
"5. c #D4DAE1",
"6. c #D8DCE2",
"7. c #DBDEE5",
"8. c #DBDFE5",
"9. c #DCE0E6",
"0. c #DFE2E8",
"q. c #E1E5EA",
"w. c #E4E7EB",
"e. c #E4E7EC",
"r. c #E5E8EC",
"t. c #E8EAEE",
/* pixels */
"q.-.{ / B w / [ ) ( 7.2.#.T ] %.%.<.E ` [ R -.{ 0 z o.P ! 7.9.<.",
"O.d Q G x c 5.<.:.K x h n h u x F ! 9.q.6.B x S t.w.q.<.D | ..#.",
"Z R K H V 5.>.@.O.@.f < ; : l | o.r.e.6.-.Y 6 9.0.7.5.-.Y ( U z ",
"R G L x g >.-.@.O.O.Y < @ w P ' q.q.6.<.] z ; *.{ -.] Y d Z U { ",
"9.7.5.3 7 @.| ..| ! E : r.6...%.5.<.#.~ Y 4 x S m n z * : x | 5.",
"*.*.@.Y k Z F Y E m D <.6.@.! @.O.T ! Z 4 Z R L ] 8 & O 6 6 7.<.",
"O.O.' j R f B r 3 *  .P ! Z z ! ~ h z r E U | [ F -.} } S ; 1.<.",
"@.O.' p 7.-.| U %.o.| Q e = b J k p Z Y } { o.K u *.O.Y Z ; -...",
"-...T n 5.r.w.q.6.O.[ / K g s x : F { r.q.6.n b < | t.q.6.X X n ",
"F z z { 5.q.0.5.-.Y / H G 6.5.1.w K q.q.6.>.-.- @ q.q.6.-.Y : a ",
"R R [ [ 5.<.<.@.W d a V <.:.*.O.Y < 5.<.-.#.] P c -.<.%.Y d 7 0 ",
"r.q.6.| -.] ' ! p & y 9 -.@.O.' z : O.P n p 3 r i F v v * j i <.",
"6.5.>.-.[ h 8 2 @ Z g > -.O.' Y h # < e & = 7 < 0 u p = O r -.%.",
"2.5.>.%.P Q [ / E U b > F T P n 8 < S *.*.R R x x l ' 7.3.A ..-.",
"<.<.@.T E C r.q.6.U w $ ; r q d r Q 7.<.<.<.S s i F 5.*.| P ..@.",
"o.| #.h A 5.q.6.-.Y 6 - < a < ; l 7.5.*.O.O.T w A :.*.O.A z ] P ",
"E r t % x -.<.%.Y d f w 7.5.<.6 S 1.>.@.| E h F ) T -.t.q.v p v ",
"Y | ' F c o.P v * z , 7.<.@.O.Y F <.%.' Y r * a G H r.e.6.%.z T ",
"| q.E B - + q & O ] E 6.*. .Y h ) O.P n r & i & @ q.q.6.-.Y d ' ",
"9.7.Y 9 1 Y O.O.&.} I ..{ n 4 2 / R q : r w y ; / 5.>.| z = : W ",
"%.j m w r.w.q.6.l [ P l v : @ i G B g g | -.<.<.^ -.P z % e 8 r ",
"i 5 U 5.q.9.6.-.Y x H q & O y w r.q.M F 5.:.*.%.*.[ d & 8 o 5.>.",
"9 ] >.5.<.<.@.' j 0 x u , ; @ 0.q.6.%.A I &.*.@.@.P V G O.5.6.-.",
"9.-.*.O.Y ! ~ F z 7 r.q.6.X   5.5.-.} j n F ! P F d R K _ 5.>...",
"6.E O.O.q 2 2 : ; 5.q.6.>.-.R -...Y F 2  .A m z = : K k B %.@...",
"1.v / ' #.F i < . 5.6.5.-.%.P >.j j v H ' } q & 8 V c 7 i i ! F ",
"O.8 B F F 9.5.! S %.%.-.] P d @.O.[ <.<.2.( H x 0 %.w.q.X.O X r ",
"v a a 0 6.<.*.| n F ' ] E 4 &  .| 5.<.*.@.*.x w T 7.9.5.-.Y N L ",
"*.| ; @ -.O.@.@.E l o.h 4 @ x / ) -.@.@.@.@.T w 5.6.5.X.Y d *.-.",
"| / 8 g | ` | ..} v  .^ S c 0 S R %.{ @.O.| v X 1.>.| P 4 j O.<.",
"q.7.h | | E Y ~ Y e ( C <.5.5.6.5.c ! E ! I 8 C O.O.~ q O @.<.o.",
"<...n { R x d e 3 Q Q #.#.#...%.-.n -.r 4 2 =.*.| j q % O.| ' ~ "
};
