/* XPM */
static char *_9e6218e50004463ffc9df358c78eda5MRBEkBWU9BD379Ad[] = {
/* columns rows colors chars-per-pixel */
"32 32 21 1 ",
"  c None",
". c #0F0F0D",
"X c #191615",
"o c #20241C",
"O c #232322",
"+ c #2C2826",
"@ c #2D3529",
"# c #3A312C",
"$ c #643E28",
"% c #3E4136",
"& c #B12432",
"* c #CE293A",
"= c #875636",
"- c #976945",
"; c #B6754F",
": c #A87155",
"> c #AE7960",
", c #EAA169",
"< c #EEAD7C",
"1 c #EFB385",
"2 c #D5D5D5",
/* pixels */
"                                ",
"                                ",
"                                ",
"                                ",
"           #%########           ",
"          O#%#########          ",
"          XX+XXXXXXXXX          ",
"          ..o.........          ",
"       @@@@@@@@@@@@@@@@@@       ",
"        OOOOOOOOOOOOOOOO        ",
"          ,,,,,,,,,,,           ",
"          oooo##oooo##o         ",
"         ,<1oo#ooo1o#oo         ",
"         ,<11##oo111#o          ",
"         ,,11,11:>->1,          ",
"          ,<1,1>:>->:,          ",
"          ,<<,1111111,          ",
"           ,<<,11111,           ",
"             O&,&               ",
"            #O&2&O              ",
"           ###*&*#              ",
"           #O#*&*#O             ",
"           #O#*&*#O             ",
"           1##$=$#,             ",
"            oooooo              ",
"            oo  oo              ",
"            ;;  =;              ",
"                                ",
"                                ",
"                                ",
"                                ",
"                                "
};
