/* XPM */
static char *_8134313bc20473fcc432a41be3f9fb0DDqVo4iFxBnEcVGE[] = {
/* columns rows colors chars-per-pixel */
"32 32 8 1 ",
"  c None",
". c #060606",
"X c #4A3203",
"o c #6D5604",
"O c #745B2A",
"+ c #4B4B44",
"@ c #FFD800",
"# c #FFFFFD",
/* pixels */
"                                ",
"                                ",
"        ................        ",
"        .X...@@@@@@@@@@.        ",
"        .XXXX....@@@@@@.        ",
"        .Xo+XXXX....@@@.        ",
"        .X+O++oXXXX...@.        ",
"        .X+OOO#XXo+XXX..        ",
"        .X+OOO#XX+O++oX.        ",
"        .X+OOO#XX+OOO#X.        ",
"        .X+OOO#XX+OOO#X.        ",
"        .X+OOO#XX+OOO#X.        ",
"        .X+OOO#XX+OOO#X.        ",
"        .X+OOO#XX+OOO#X.        ",
"        .Xo#OO#XXo#OO#X.        ",
"        .XXX##oXXXX##oX.        ",
"        .XXXXXXXXXXXXXX.        ",
"        .Xo+XXXXXo+XXXX.        ",
"        .X+O++oXX+O++oX.        ",
"        .X+OOO#XX+OOO#X.        ",
"        .X+OOO#XX+OOO#X.        ",
"        .X+OOO#XX+OOO#X.        ",
"        .X+OOO#XX+OOO#X.        ",
"        .X+OOO#XX+OOO#X.        ",
"        .X+OOO#XX+OOO#X.        ",
"        .X+OOO#XX+OOO#X.        ",
"        .X+OOO#XX+OOO#X.        ",
"        .Xo#OO#XXo#OO#X.        ",
"        .XXX##oXXXX##oX.        ",
"        ....XXXXXXXXXXX.        ",
"           .........XXX.        ",
"                   .....        "
};
