/* XPM */
static char *result[] = {
/* width height color char_per_pixel */
"64 64 2 1",
/* char type color */
"1 c #00FF00",
"0 c #000000",
/* pixels */
"0000000011111111000000001111111100000000111111110000000011111111",
"0000000011111111000000001111111100000000111111110000000011111111",
"0000000011111111000000001111111100000000111111110000000011111111",
"0000000011111111000000001111111100000000111111110000000011111111",
"0000000011111111000000001111111100000000111111110000000011111111",
"0000000011111111000000001111111100000000111111110000000011111111",
"0000000011111111000000001111111100000000111111110000000011111111",
"0000000011111111000000001111111100000000111111110000000011111111",
"1111111100000000111111110000000011111111000000001111111100000000",
"1111111100000000111111110000000011111111000000001111111100000000",
"1111111100000000111111110000000011111111000000001111111100000000",
"1111111100000000111111110000000011111111000000001111111100000000",
"1111111100000000111111110000000011111111000000001111111100000000",
"1111111100000000111111110000000011111111000000001111111100000000",
"1111111100000000111111110000000011111111000000001111111100000000",
"1111111100000000111111110000000011111111000000001111111100000000",
"0000000011111111000000001111111100000000111111110000000011111111",
"0000000011111111000000001111111100000000111111110000000011111111",
"0000000011111111000000001111111100000000111111110000000011111111",
"0000000011111111000000001111111100000000111111110000000011111111",
"0000000011111111000000001111111100000000111111110000000011111111",
"0000000011111111000000001111111100000000111111110000000011111111",
"0000000011111111000000001111111100000000111111110000000011111111",
"0000000011111111000000001111111100000000111111110000000011111111",
"1111111100000000111111110000000011111111000000001111111100000000",
"1111111100000000111111110000000011111111000000001111111100000000",
"1111111100000000111111110000000011111111000000001111111100000000",
"1111111100000000111111110000000011111111000000001111111100000000",
"1111111100000000111111110000000011111111000000001111111100000000",
"1111111100000000111111110000000011111111000000001111111100000000",
"1111111100000000111111110000000011111111000000001111111100000000",
"1111111100000000111111110000000011111111000000001111111100000000",
"0000000011111111000000001111111100000000111111110000000011111111",
"0000000011111111000000001111111100000000111111110000000011111111",
"0000000011111111000000001111111100000000111111110000000011111111",
"0000000011111111000000001111111100000000111111110000000011111111",
"0000000011111111000000001111111100000000111111110000000011111111",
"0000000011111111000000001111111100000000111111110000000011111111",
"0000000011111111000000001111111100000000111111110000000011111111",
"0000000011111111000000001111111100000000111111110000000011111111",
"1111111100000000111111110000000011111111000000001111111100000000",
"1111111100000000111111110000000011111111000000001111111100000000",
"1111111100000000111111110000000011111111000000001111111100000000",
"1111111100000000111111110000000011111111000000001111111100000000",
"1111111100000000111111110000000011111111000000001111111100000000",
"1111111100000000111111110000000011111111000000001111111100000000",
"1111111100000000111111110000000011111111000000001111111100000000",
"1111111100000000111111110000000011111111000000001111111100000000",
"0000000011111111000000001111111100000000111111110000000011111111",
"0000000011111111000000001111111100000000111111110000000011111111",
"0000000011111111000000001111111100000000111111110000000011111111",
"0000000011111111000000001111111100000000111111110000000011111111",
"0000000011111111000000001111111100000000111111110000000011111111",
"0000000011111111000000001111111100000000111111110000000011111111",
"0000000011111111000000001111111100000000111111110000000011111111",
"0000000011111111000000001111111100000000111111110000000011111111",
"1111111100000000111111110000000011111111000000001111111100000000",
"1111111100000000111111110000000011111111000000001111111100000000",
"1111111100000000111111110000000011111111000000001111111100000000",
"1111111100000000111111110000000011111111000000001111111100000000",
"1111111100000000111111110000000011111111000000001111111100000000",
"1111111100000000111111110000000011111111000000001111111100000000",
"1111111100000000111111110000000011111111000000001111111100000000",
"1111111100000000111111110000000011111111000000001111111100000000"
};