/* XPM */
static char *e8135b7f4423400ba5bbeb6cc4734ccewDINftkPLkq4TPJ1[] = {
/* columns rows colors chars-per-pixel */
"32 32 10 1 ",
"  c None",
". c #313433",
"X c #414643",
"o c #525855",
"O c #575D5B",
"+ c #626A66",
"@ c #656D6A",
"# c #6C7370",
"$ c #7C807E",
"% c #A7B0AC",
/* pixels */
"                                ",
"                                ",
"                                ",
"                                ",
"              ++++              ",
"              ++++              ",
"            ++%%%%++            ",
"            ++%%%%++            ",
"          ++%%%%%%%%++          ",
"          ++%%%%%%%%++          ",
"        ++OO%%%%%%%%%%++        ",
"        ++OO%%%%%%%%%%++        ",
"        ++$$##%%%%%%%%OO++      ",
"        ++$$##%%%%%%%%OO++      ",
"        ++$$$$##%%%%##%%%%++    ",
"        ++$$$$##%%%%##%%%%++    ",
"      ++%%##$$$$##OO%%%%%%XX    ",
"      ++%%##$$$$##OO%%%%%%XX    ",
"    XX%%%%%%oo##oo%%%%%%%%XX    ",
"    XX%%%%%%oo##oo%%%%%%%%XX    ",
"    XXOOOO##@@oo##@@%%%%%%XX    ",
"    XXOOOO##@@oo##@@%%%%%%XX    ",
"    XX$$$$$$$$$$$$$$OO%%%%..    ",
"    XX$$$$$$$$$$$$$$OO%%%%..    ",
"      ..$$$$$$$$$$$$$$OO..      ",
"      ..$$$$$$$$$$$$$$OO..      ",
"        ..............          ",
"        ..............          ",
"                                ",
"                                ",
"                                "
"                                "
};